<svg width="36" height="36" viewBox="0 0 36 36" fill="none" xmlns="http://www.w3.org/2000/svg">
<path d="M23.5775 8.19972C20.0559 7.52978 16.4844 7.52978 12.962 8.19972C11.4214 8.54286 9.48318 10.4002 9.10425 11.8941C8.474 14.7847 8.474 17.715 9.10425 20.6056C9.48318 22.0995 11.4214 23.9568 12.962 24.3C12.9624 24.3 12.9628 24.3001 12.9632 24.3002C13.0318 24.3137 13.0819 24.3731 13.0819 24.4431V28.6776C13.0819 28.8892 13.3402 28.9935 13.4872 28.8402L15.4986 26.7759C15.4986 26.7759 17.1014 25.1306 17.3896 24.8348C17.4178 24.8058 17.4567 24.7902 17.497 24.7913C19.5277 24.8475 21.5606 24.6835 23.5775 24.3C25.1181 23.9569 27.0571 22.0996 27.4353 20.6057C28.0663 17.7151 28.0663 14.7848 27.4353 11.8942C27.0571 10.4002 25.1189 8.54286 23.5775 8.19972ZM23.6312 20.8212C23.3231 21.4754 22.8747 22.0197 22.228 22.3671C22.0455 22.4652 21.8274 22.4968 21.6215 22.5602C21.3846 22.4883 21.1589 22.44 20.9493 22.353C18.7772 21.4518 16.7781 20.2892 15.1946 18.507C14.2941 17.4935 13.5892 16.3494 12.9935 15.1385C12.711 14.5643 12.4729 13.9675 12.2302 13.3747C12.0089 12.8341 12.3349 12.2756 12.6781 11.8683C13.0002 11.486 13.4146 11.1934 13.8634 10.9778C14.2137 10.8095 14.5592 10.9065 14.815 11.2035C15.3681 11.8454 15.8761 12.5201 16.2875 13.2642C16.5405 13.7219 16.4711 14.2814 16.0126 14.5928C15.9012 14.6685 15.7996 14.7574 15.6958 14.8429C15.6048 14.9178 15.5191 14.9935 15.4567 15.095C15.3427 15.2806 15.3372 15.4996 15.4107 15.7014C15.976 17.2551 16.929 18.4633 18.4928 19.114C18.7431 19.2181 18.9943 19.3393 19.2826 19.3057C19.7654 19.2493 19.9217 18.7197 20.26 18.443C20.5907 18.1727 21.0133 18.1691 21.3695 18.3945C21.7258 18.62 22.0712 18.8621 22.4145 19.1067C22.7515 19.3468 23.087 19.5817 23.3979 19.8554C23.6966 20.1186 23.7995 20.4639 23.6312 20.8212ZM20.8267 15.7582C20.6918 15.7607 20.7448 15.758 20.7961 15.7565C20.5788 15.7489 20.4606 15.621 20.4372 15.413C20.4202 15.261 20.4067 15.1071 20.3705 14.9592C20.299 14.6681 20.1443 14.3982 19.8994 14.2198C19.7838 14.1355 19.6527 14.0741 19.5155 14.0345C19.3411 13.9842 19.1601 13.998 18.9861 13.9554C18.7972 13.9092 18.6927 13.7561 18.7223 13.5789C18.7493 13.4176 18.9062 13.2917 19.0825 13.3045C20.184 13.384 20.9713 13.9535 21.0837 15.2503C21.0916 15.3418 21.1009 15.4384 21.0806 15.526C21.0476 15.6683 20.9459 15.7424 20.8431 15.7558C20.8516 15.756 20.8499 15.7567 20.8267 15.7582ZM20.1417 12.7922C19.8037 12.6267 19.4382 12.5239 19.0676 12.4626C18.9057 12.4358 18.7421 12.4195 18.5794 12.3969C18.3822 12.3695 18.277 12.2438 18.2863 12.0496C18.295 11.8675 18.428 11.7365 18.6264 11.7477C19.2785 11.7848 19.9083 11.9257 20.488 12.2326C21.6668 12.8569 22.3401 13.8423 22.5367 15.158C22.5456 15.2176 22.5599 15.2767 22.5644 15.3365C22.5756 15.4842 22.5825 15.6321 22.5939 15.8269C22.5892 15.8624 22.5867 15.9458 22.566 16.0244C22.4906 16.3096 22.0581 16.3453 21.9585 16.0574C21.9291 15.972 21.9246 15.8748 21.9245 15.7828C21.9235 15.1811 21.7927 14.5799 21.4892 14.0563C21.1773 13.5184 20.7006 13.066 20.1417 12.7922ZM23.7841 16.8586C23.5564 16.8613 23.4539 16.6708 23.4391 16.4665C23.4098 16.0622 23.3896 15.6562 23.3338 15.2552C23.0397 13.1387 21.352 11.3877 19.2454 11.012C18.9284 10.9554 18.6039 10.9405 18.2828 10.9069C18.0798 10.8855 17.814 10.8732 17.769 10.6209C17.7313 10.4093 17.9098 10.2409 18.1113 10.2301C18.1661 10.2271 18.2211 10.2296 18.2761 10.2298C21.0045 10.3063 18.4427 10.2357 18.2835 10.2302C21.1213 10.3129 23.4513 12.1975 23.951 15.0039C24.0362 15.4825 24.0665 15.9718 24.1044 16.4576C24.1203 16.6618 24.0046 16.856 23.7841 16.8586Z" fill="#FDD444"/>
<path d="M0.539978 0V35.46H36V0H0.539978ZM29.4846 21.0692L29.4776 21.0972C28.9112 23.3871 26.3575 25.8444 24.0123 26.3556L23.9859 26.361C22.0897 26.7228 20.1795 26.9033 18.27 26.9033C17.708 26.9033 17.146 26.8858 16.5843 26.8544L13.9944 29.5465C13.3533 30.2141 12.2258 29.7597 12.2258 28.8346V26.2784C9.96818 25.6337 7.60465 23.2894 7.06162 21.0972L7.0554 21.0691C6.35512 17.8712 6.35512 14.6281 7.0554 11.4302L7.06162 11.4021C7.62885 9.11222 10.1825 6.65501 12.5269 6.1438L12.5542 6.13836C16.3466 5.41473 20.1927 5.41473 23.9859 6.13836L24.0123 6.1438C26.3575 6.65501 28.9112 9.11222 29.4776 11.4021L29.4846 11.4302C30.1849 14.6282 30.1849 17.8713 29.4846 21.0692Z" fill="#FDD444"/>
</svg>
