<svg width="37" height="36" viewBox="0 0 37 36" fill="none" xmlns="http://www.w3.org/2000/svg">
<path d="M18.4392 7.4165C12.7687 7.4165 8.15536 12.0298 8.15536 17.7003C8.15536 19.6761 8.71691 21.5948 9.77916 23.2489L10.0345 23.6465L9.03422 27.1991L12.7098 26.2529L13.0888 26.4844C14.6959 27.4655 16.5461 27.9841 18.4392 27.9841C24.1096 27.9841 28.7229 23.3708 28.7229 17.7003C28.7229 12.0298 24.1096 7.4165 18.4392 7.4165ZM24.7453 20.861L24.617 21.4603C24.4722 22.1364 24.0707 22.7345 23.4881 23.1072C22.7526 23.5777 21.7992 23.8087 20.5874 23.466C16.8266 22.4026 14.6998 19.9127 13.5587 18.3565C12.4174 16.8004 11.9766 15.2442 12.2618 13.9733C12.4531 13.121 13.0761 12.467 13.4657 12.1286C13.6565 11.9629 13.9041 11.8785 14.1565 11.8923L14.9601 11.9361C15.1183 11.9448 15.2579 12.0425 15.3203 12.1882L16.4909 14.9272C16.5535 15.0735 16.5271 15.2427 16.423 15.3631L15.4041 16.5419C15.3214 16.6374 15.307 16.7736 15.3652 16.8857C16.7073 19.4708 19.1531 20.4952 19.8833 20.7518C20.0077 20.7955 20.1456 20.7542 20.2262 20.6497L21.2924 19.2675C21.411 19.1138 21.6201 19.0624 21.7964 19.1437L24.5123 20.3956C24.6893 20.4772 24.786 20.6705 24.7453 20.861Z" fill="#FDD444"/>
<path d="M0.693329 0V35.46H36.1533V0H0.693329ZM18.4393 30.0853C16.3115 30.0853 14.2279 29.5406 12.3847 28.5064L6.02278 30.144L7.75972 23.975C6.64277 22.0775 6.05468 19.9185 6.05468 17.7006C6.05468 10.8717 11.6104 5.31599 18.4393 5.31599C25.2682 5.31599 30.8239 10.8717 30.8239 17.7006C30.8239 24.5295 25.2682 30.0853 18.4393 30.0853Z" fill="#FDD444"/>
</svg>
